<svg width="140" height="28" viewBox="0 0 140 28" fill="none" xmlns="http://www.w3.org/2000/svg">
<g clip-path="url(#clip0_561_2238)">
<path d="M13.4464 0.460446H0.134902C0.0947386 0.460446 0.0717876 0.507114 0.0918695 0.544447L6.66154 12.1333C6.68736 12.18 6.75621 12.1613 6.75621 12.1053V6.75423C6.75621 6.72312 6.77916 6.69822 6.80785 6.69822H10.566C10.5833 6.69822 10.6005 6.70756 10.6091 6.72311L14.9783 14.224C14.9984 14.2582 15.0443 14.2582 15.0644 14.224L19.4337 6.72311C19.4423 6.70756 19.4595 6.69822 19.4767 6.69822H23.3095C23.3382 6.69822 23.3611 6.72312 23.3611 6.75423V12.096C23.3611 12.152 23.4271 12.1707 23.4558 12.124L30.1747 0.541338C30.1947 0.504004 30.1718 0.457336 30.1316 0.457336H16.5218C16.5046 0.457336 16.4902 0.46667 16.4816 0.482226L15.1706 2.51067C15.1505 2.53867 15.1132 2.54178 15.0902 2.51378L13.4837 0.479112C13.4751 0.466667 13.4607 0.460446 13.4464 0.460446Z" fill="#070707"/>
<path d="M14.9439 27.4307L9.55908 18.4396C9.53613 18.3991 9.52466 18.3556 9.52466 18.3089V11.5796C9.52466 11.4458 9.62507 11.34 9.74556 11.34H10.5775C10.655 11.34 10.7296 11.3867 10.7697 11.4582L14.941 19.2236C15.0271 19.3822 15.2365 19.3822 15.3226 19.2236L19.4939 11.4582C19.5341 11.3836 19.6058 11.34 19.6861 11.34H20.5181C20.6415 11.34 20.739 11.4489 20.739 11.5796V18.3182C20.739 18.3649 20.7275 18.4116 20.7046 18.4489L15.3197 27.4307C15.2279 27.5769 15.03 27.5769 14.9439 27.4307Z" fill="#070707"/>
<path d="M30.6079 18.5484V5.55334H35.8292L37.7972 11.8658H38.2247L40.1927 5.55334H45.414V18.5484H41.5611V12.0493L41.8193 10.3787H41.6472L39.9345 15.5773H36.0816L34.3689 10.3787H34.1968L34.455 12.0493V18.5484H30.6079Z" fill="black"/>
<path d="M48.0792 17.444C47.3305 16.5231 46.9575 15.2818 46.9575 13.7231C46.9575 12.1645 47.3305 10.9231 48.0792 10.0023C48.828 9.08137 49.7374 8.61781 50.8104 8.61781C51.5878 8.61781 52.2649 8.88537 52.8473 9.41737C53.0969 9.64137 53.3034 9.89959 53.4641 10.1983H53.6362V8.89782H57.2309V18.5516H53.6362V17.2512H53.4641C53.3149 17.5592 53.1112 17.8267 52.8473 18.0507C52.2764 18.5703 51.5964 18.8316 50.8104 18.8316C49.7374 18.8254 48.8251 18.3649 48.0792 17.444ZM51.0743 12.3014C50.7846 12.6529 50.6382 13.1289 50.6382 13.72C50.6382 14.3143 50.7846 14.7872 51.0743 15.1418C51.3641 15.4934 51.7341 15.6707 52.1788 15.6707C52.5776 15.6707 52.9219 15.4903 53.2059 15.1325C53.4899 14.7747 53.6333 14.3049 53.6333 13.72C53.6333 13.1383 53.4899 12.6685 53.2059 12.3076C52.9219 11.9498 52.5776 11.7694 52.1788 11.7694C51.7341 11.7725 51.3669 11.9498 51.0743 12.3014Z" fill="black"/>
<path d="M58.7714 18.5484V5.55334H62.366V12.0524H63.0517L64.6783 8.89467H68.3591L66.064 13.4431L68.6144 18.5484H64.9337L63.221 15.3004H62.366V18.5484H58.7714Z" fill="black"/>
<path d="M69.8796 17.3227C68.9214 16.3209 68.4423 15.1013 68.4423 13.664C68.4423 12.2298 68.9156 11.0289 69.8624 10.0613C70.8091 9.09689 72.0197 8.61467 73.4915 8.61467C74.9632 8.61467 76.1882 9.10934 77.1636 10.0987C78.139 11.088 78.6267 12.2764 78.6267 13.664V14.2769H72.123C72.1689 14.8213 72.3267 15.2507 72.5935 15.568C72.8603 15.8822 73.1902 16.0409 73.5775 16.0409C74.0107 16.0409 74.355 15.904 74.6046 15.6333C74.7308 15.4964 74.8169 15.3564 74.8628 15.2071H78.5435C78.3484 15.8636 78.03 16.4702 77.5853 17.0271C76.5927 18.228 75.2271 18.8284 73.4943 18.8284C72.0427 18.8253 70.8406 18.3244 69.8796 17.3227ZM72.123 12.6996H74.8628C74.8054 12.4538 74.7251 12.236 74.6218 12.0493C74.3578 11.6169 73.982 11.3991 73.4915 11.3991C73.0009 11.3991 72.6251 11.6169 72.3611 12.0493C72.2607 12.236 72.1804 12.4538 72.123 12.6996Z" fill="black"/>
<path d="M79.8259 18.5484V8.89467H83.4206V10.1951H83.5927C83.7648 9.89645 83.9685 9.63822 84.2095 9.41422C84.7689 8.88222 85.4201 8.61467 86.1603 8.61467C86.9578 8.61467 87.6607 8.89156 88.266 9.45156C88.5415 9.70978 88.7509 9.98978 88.9001 10.2853H89.0722C89.2214 9.98978 89.4308 9.70978 89.7062 9.45156C90.3115 8.89467 91.0144 8.61467 91.8119 8.61467C92.8619 8.61467 93.6796 8.95689 94.2677 9.64445C94.8558 10.332 95.1484 11.3182 95.1484 12.6062V18.5484H91.5537V13.2564C91.5537 12.7991 91.4591 12.4507 91.2726 12.2173C91.0861 11.984 90.8365 11.8658 90.5267 11.8658C90.1279 11.8658 89.8124 12.0027 89.5857 12.2733C89.3562 12.5471 89.2443 12.936 89.2443 13.4431V18.5484H85.7357V13.2564C85.7357 12.7991 85.641 12.4507 85.4517 12.2173C85.2624 11.9809 85.0156 11.8658 84.7058 11.8658C84.307 11.8658 83.9915 12.0027 83.7648 12.2733C83.5382 12.544 83.4234 12.936 83.4234 13.4431V18.5484H79.8259Z" fill="#49A2E1"/>
<path d="M97.6988 17.3787C96.7406 16.4142 96.2615 15.1947 96.2615 13.72C96.2615 12.2484 96.7406 11.0289 97.6988 10.0613C98.657 9.09689 99.9193 8.61467 101.483 8.61467C103.046 8.61467 104.309 9.09689 105.267 10.0613C106.225 11.0258 106.704 12.2453 106.704 13.72C106.704 15.1947 106.225 16.4111 105.267 17.3787C104.309 18.3431 103.046 18.8284 101.483 18.8284C99.9193 18.8284 98.6599 18.3431 97.6988 17.3787ZM100.37 12.2173C100.086 12.5751 99.9423 13.076 99.9423 13.72C99.9423 14.364 100.086 14.8649 100.37 15.2227C100.654 15.5804 101.027 15.7609 101.483 15.7609C101.939 15.7609 102.309 15.5804 102.596 15.2227C102.88 14.8649 103.023 14.364 103.023 13.72C103.023 13.076 102.88 12.5751 102.596 12.2173C102.309 11.8596 101.939 11.6791 101.483 11.6791C101.027 11.6791 100.657 11.8596 100.37 12.2173Z" fill="#49A2E1"/>
<path d="M107.903 18.5484V8.89467H111.498V10.1951H111.67C111.842 9.90889 112.057 9.65067 112.321 9.41422C112.95 8.88222 113.615 8.61467 114.324 8.61467C115.339 8.61467 116.137 8.95689 116.711 9.64445C117.284 10.332 117.574 11.3182 117.574 12.6062V18.5484H113.98V13.2564C113.98 12.3293 113.609 11.8627 112.866 11.8627C112.468 11.8627 112.138 12.0151 111.882 12.3169C111.627 12.6187 111.498 13.0262 111.498 13.5333V18.5453H107.903V18.5484Z" fill="#49A2E1"/>
<path d="M120.128 17.3227C119.169 16.3209 118.69 15.1013 118.69 13.664C118.69 12.2298 119.164 11.0289 120.11 10.0613C121.057 9.09689 122.268 8.61467 123.739 8.61467C125.211 8.61467 126.436 9.10934 127.412 10.0987C128.387 11.088 128.875 12.2764 128.875 13.664V14.2769H122.368C122.414 14.8213 122.572 15.2507 122.839 15.568C123.105 15.8822 123.435 16.0409 123.823 16.0409C124.256 16.0409 124.6 15.904 124.85 15.6333C124.976 15.4964 125.062 15.3564 125.108 15.2071H128.789C128.594 15.8636 128.275 16.4702 127.83 17.0271C126.838 18.228 125.472 18.8284 123.739 18.8284C122.291 18.8253 121.086 18.3244 120.128 17.3227ZM122.368 12.6996H125.108C125.05 12.4538 124.97 12.236 124.867 12.0493C124.603 11.6169 124.227 11.3991 123.737 11.3991C123.246 11.3991 122.87 11.6169 122.606 12.0493C122.506 12.236 122.425 12.4538 122.368 12.6996Z" fill="#49A2E1"/>
<path d="M129.474 8.89467H133.069L134.437 15.2071H134.779L136.233 8.89467H139.914L136.575 22.0764H132.98L133.921 18.5484H131.712L129.474 8.89467Z" fill="#49A2E1"/>
</g>
<defs>
<clipPath id="clip0_561_2238">
<rect width="140" height="28" fill="white"/>
</clipPath>
</defs>
</svg>
