<svg width="235" height="235" viewBox="0 0 235 235" fill="none" xmlns="http://www.w3.org/2000/svg">
<g id="Property 1=Default" clip-path="url(#clip0_577_1823)">
<g id="Default">
<path d="M15.2394 74.7844C12.898 71.0375 14.0375 66.102 17.7844 63.7606L51.7063 42.5639C55.4532 40.2225 60.3887 41.362 62.73 45.1089L141.688 171.468C144.029 175.215 142.89 180.15 139.143 182.492L105.221 203.689C101.474 206.03 96.5387 204.89 94.1973 201.144L15.2394 74.7844Z" fill="#FFC7C7"/>
<path d="M93.2562 63.7677C90.9149 60.0208 92.0544 55.0853 95.8013 52.744L129.723 31.5472C133.47 29.2059 138.406 30.3453 140.747 34.0923L219.705 160.451C222.046 164.198 220.907 169.134 217.16 171.475L183.238 192.672C179.491 195.013 174.556 193.874 172.214 190.127L93.2562 63.7677Z" fill="#FFC7C7"/>
</g>
</g>
<defs>
<clipPath id="clip0_577_1823">
<rect width="235" height="235" fill="white"/>
</clipPath>
</defs>
</svg>
