<svg width="235" height="235" viewBox="0 0 235 235" fill="none" xmlns="http://www.w3.org/2000/svg">
<path fill-rule="evenodd" clip-rule="evenodd" d="M124.841 14.4897C120.422 12.8815 115.578 12.8815 111.16 14.4897L56.0623 34.5436C51.6438 36.1518 47.9333 39.2653 45.5822 43.3374L16.2655 94.1155C13.9144 98.1876 13.0733 102.958 13.8898 107.588L24.0714 165.331C24.8879 169.962 27.3098 174.157 30.9118 177.179L75.8277 214.868C79.4297 217.89 83.9814 219.547 88.6834 219.547H147.317C152.019 219.547 156.571 217.89 160.173 214.868L205.089 177.179C208.691 174.157 211.112 169.962 211.929 165.331L222.111 107.588C222.927 102.958 222.086 98.1876 219.735 94.1155L190.418 43.3374C188.067 39.2653 184.357 36.1518 179.938 34.5436L124.841 14.4897ZM118 152C136.225 152 151 137.225 151 119C151 100.775 136.225 86 118 86C99.7746 86 85 100.775 85 119C85 137.225 99.7746 152 118 152Z" fill="#E0C8FF"/>
</svg>
