<svg width="235" height="235" viewBox="0 0 235 235" fill="none" xmlns="http://www.w3.org/2000/svg">
<path fill-rule="evenodd" clip-rule="evenodd" d="M129.226 27.4993C122.077 22.9272 112.923 22.9272 105.774 27.4993C101.331 30.3406 96.0071 31.4722 90.7926 30.6836C82.4019 29.4147 74.0388 33.1381 69.3673 40.2227C66.4642 44.6255 62.0611 47.8245 56.9767 49.2251C48.7953 51.4786 42.6697 58.2818 41.2836 66.6539C40.4223 71.8569 37.701 76.5702 33.6258 79.9177C27.0683 85.3041 24.2394 94.0106 26.3785 102.223C27.7078 107.326 27.1389 112.739 24.7775 117.454C20.9779 125.042 21.9348 134.147 27.229 140.779C30.5192 144.9 32.201 150.077 31.9618 155.345C31.5769 163.822 36.1542 171.75 43.6883 175.656C48.3704 178.083 52.0121 182.127 53.9365 187.038C57.0329 194.939 64.4391 200.319 72.9102 200.823C78.1748 201.136 83.1467 203.349 86.9018 207.052C92.9442 213.011 101.899 214.914 109.842 211.928C114.779 210.073 120.221 210.073 125.158 211.928C133.101 214.914 142.056 213.011 148.098 207.052C151.853 203.349 156.825 201.136 162.09 200.823C170.561 200.319 177.967 194.939 181.064 187.038C182.988 182.127 186.63 178.083 191.312 175.656C198.846 171.75 203.423 163.822 203.038 155.345C202.799 150.077 204.481 144.9 207.771 140.779C213.065 134.147 214.022 125.042 210.222 117.454C207.861 112.739 207.292 107.326 208.622 102.223C210.761 94.0106 207.932 85.3041 201.374 79.9177C197.299 76.5702 194.578 71.8569 193.716 66.6539C192.33 58.2818 186.205 51.4786 178.023 49.2251C172.939 47.8245 168.536 44.6255 165.633 40.2227C160.961 33.1381 152.598 29.4147 144.207 30.6836C138.993 31.4722 133.669 30.3406 129.226 27.4993ZM117.5 172C146.495 172 170 148.495 170 119.5C170 90.5051 146.495 67 117.5 67C88.5051 67 65 90.5051 65 119.5C65 148.495 88.5051 172 117.5 172Z" fill="#9CFE8C"/>
</svg>
