<svg width="235" height="235" viewBox="0 0 235 235" fill="none" xmlns="http://www.w3.org/2000/svg">
<path d="M32.1968 101.804C29.8554 98.0571 30.9949 93.1216 34.7418 90.7803L68.6637 69.5835C72.4106 67.2422 77.3461 68.3816 79.6875 72.1285L158.645 198.488C160.987 202.235 159.847 207.17 156.1 209.511L122.178 230.708C118.432 233.05 113.496 231.91 111.155 228.163L32.1968 101.804Z" fill="#FFC7C7"/>
<path d="M76.2988 36.5123C73.9575 32.7654 75.0969 27.8299 78.8438 25.4885L112.766 4.29177C116.513 1.95044 121.448 3.08989 123.79 6.8368L202.747 133.196C205.089 136.943 203.949 141.878 200.202 144.22L166.281 165.416C162.534 167.758 157.598 166.618 155.257 162.871L76.2988 36.5123Z" fill="#FFC7C7"/>
</svg>
