<svg width="235" height="235" viewBox="0 0 235 235" fill="none" xmlns="http://www.w3.org/2000/svg">
<path fill-rule="evenodd" clip-rule="evenodd" d="M130.759 15.4791C122.675 10.3097 112.325 10.3097 104.241 15.4791C99.218 18.6917 93.199 19.9711 87.3031 19.0795C77.8162 17.6447 68.3604 21.8547 63.0786 29.8649C59.7961 34.843 54.8178 38.4599 49.0691 40.0434C39.8188 42.5915 32.8928 50.2835 31.3257 59.7495C30.3518 65.6323 27.275 70.9613 22.6673 74.7462C15.2531 80.8363 12.0546 90.6804 14.4731 99.9654C15.9761 105.736 15.3329 111.856 12.663 117.187C8.3669 125.767 9.44883 136.06 15.4348 143.559C19.1549 148.219 21.0564 154.072 20.786 160.028C20.3508 169.613 25.5261 178.577 34.0445 182.993C39.3384 185.737 43.4559 190.31 45.6317 195.862C49.1326 204.795 57.5065 210.879 67.0844 211.448C73.0368 211.802 78.6583 214.304 82.904 218.491C89.7358 225.228 99.8603 227.38 108.842 224.004C114.423 221.906 120.577 221.906 126.158 224.004C135.14 227.38 145.264 225.228 152.096 218.491C156.342 214.304 161.963 211.802 167.916 211.448C177.494 210.879 185.867 204.795 189.368 195.862C191.544 190.31 195.662 185.737 200.955 182.993C209.474 178.577 214.649 169.613 214.214 160.028C213.944 154.072 215.845 148.219 219.565 143.559C225.551 136.06 226.633 125.767 222.337 117.187C219.667 111.856 219.024 105.736 220.527 99.9654C222.945 90.6804 219.747 80.8363 212.333 74.7462C207.725 70.9613 204.648 65.6322 203.674 59.7494C202.107 50.2835 195.181 42.5915 185.931 40.0434C180.182 38.4599 175.204 34.843 171.921 29.8649C166.64 21.8547 157.184 17.6447 147.697 19.0795C141.801 19.9711 135.782 18.6917 130.759 15.4791ZM117.5 160C139.868 160 158 141.868 158 119.5C158 97.1325 139.868 79 117.5 79C95.1325 79 77 97.1325 77 119.5C77 141.868 95.1325 160 117.5 160Z" fill="#9CFE8C"/>
</svg>
