<svg width="235" height="235" viewBox="0 0 235 235" fill="none" xmlns="http://www.w3.org/2000/svg">
<path fill-rule="evenodd" clip-rule="evenodd" d="M124.869 22.2061C120.45 20.598 115.606 20.598 111.188 22.2061L60.911 40.5053C56.4926 42.1135 52.7821 45.2271 50.431 49.2991L23.6796 95.6343C21.3285 99.7064 20.4872 104.477 21.3041 109.107L30.5946 161.798C31.411 166.428 33.8329 170.623 37.4349 173.646L78.4208 208.037C82.0228 211.059 86.5746 212.716 91.2767 212.716H144.78C149.482 212.716 154.034 211.059 157.636 208.037L198.621 173.646C202.224 170.623 204.645 166.428 205.462 161.798L214.752 109.107C215.569 104.477 214.728 99.7064 212.377 95.6343L185.625 49.2991C183.274 45.2271 179.564 42.1135 175.145 40.5053L124.869 22.2061ZM118.028 164.716C143.157 164.716 163.528 144.345 163.528 119.216C163.528 94.0875 143.157 73.7164 118.028 73.7164C92.8993 73.7164 72.5282 94.0875 72.5282 119.216C72.5282 144.345 92.8993 164.716 118.028 164.716Z" fill="#E0C8FF"/>
</svg>
